<svg id="wave" style="transform:rotate(180deg); transition: 0.3s" viewBox="0 0 1440 230" version="1.1" xmlns="http://www.w3.org/2000/svg"><defs><linearGradient id="sw-gradient-0" x1="0" x2="0" y1="1" y2="0"><stop stop-color="rgba(2, 48, 71, 1)" offset="0%"></stop><stop stop-color="rgba(0, 121.666, 182.499, 1)" offset="100%"></stop></linearGradient></defs><path style="transform:translate(0, 0px); opacity:1" fill="url(#sw-gradient-0)" d="M0,69L120,61.3C240,54,480,38,720,53.7C960,69,1200,115,1440,126.5C1680,138,1920,115,2160,92C2400,69,2640,46,2880,65.2C3120,84,3360,146,3600,161C3840,176,4080,146,4320,138C4560,130,4800,146,5040,145.7C5280,146,5520,130,5760,115C6000,100,6240,84,6480,99.7C6720,115,6960,161,7200,161C7440,161,7680,115,7920,88.2C8160,61,8400,54,8640,53.7C8880,54,9120,61,9360,69C9600,77,9840,84,10080,95.8C10320,107,10560,123,10800,138C11040,153,11280,169,11520,149.5C11760,130,12000,77,12240,49.8C12480,23,12720,23,12960,46C13200,69,13440,115,13680,141.8C13920,169,14160,176,14400,172.5C14640,169,14880,153,15120,122.7C15360,92,15600,46,15840,53.7C16080,61,16320,123,16560,149.5C16800,176,17040,169,17160,164.8L17280,161L17280,230L17160,230C17040,230,16800,230,16560,230C16320,230,16080,230,15840,230C15600,230,15360,230,15120,230C14880,230,14640,230,14400,230C14160,230,13920,230,13680,230C13440,230,13200,230,12960,230C12720,230,12480,230,12240,230C12000,230,11760,230,11520,230C11280,230,11040,230,10800,230C10560,230,10320,230,10080,230C9840,230,9600,230,9360,230C9120,230,8880,230,8640,230C8400,230,8160,230,7920,230C7680,230,7440,230,7200,230C6960,230,6720,230,6480,230C6240,230,6000,230,5760,230C5520,230,5280,230,5040,230C4800,230,4560,230,4320,230C4080,230,3840,230,3600,230C3360,230,3120,230,2880,230C2640,230,2400,230,2160,230C1920,230,1680,230,1440,230C1200,230,960,230,720,230C480,230,240,230,120,230L0,230Z"></path></svg>