<svg id="wave" style="transform:rotate(0deg); transition: 0.3s" viewBox="0 0 1440 100" version="1.1" xmlns="http://www.w3.org/2000/svg"><defs><linearGradient id="sw-gradient-0" x1="0" x2="0" y1="1" y2="0"><stop stop-color="rgba(4, 48, 71, 1)" offset="0%"></stop><stop stop-color="rgba(0, 63.095, 119.02, 1)" offset="100%"></stop></linearGradient></defs><path style="transform:translate(0, 0px); opacity:1" fill="url(#sw-gradient-0)" d="M0,40L80,36.7C160,33,320,27,480,35C640,43,800,67,960,66.7C1120,67,1280,43,1440,41.7C1600,40,1760,60,1920,70C2080,80,2240,80,2400,73.3C2560,67,2720,53,2880,40C3040,27,3200,13,3360,6.7C3520,0,3680,0,3840,5C4000,10,4160,20,4320,26.7C4480,33,4640,37,4800,45C4960,53,5120,67,5280,68.3C5440,70,5600,60,5760,60C5920,60,6080,70,6240,73.3C6400,77,6560,73,6720,63.3C6880,53,7040,37,7200,26.7C7360,17,7520,13,7680,25C7840,37,8000,63,8160,75C8320,87,8480,83,8640,76.7C8800,70,8960,60,9120,46.7C9280,33,9440,17,9600,23.3C9760,30,9920,60,10080,70C10240,80,10400,70,10560,66.7C10720,63,10880,67,11040,58.3C11200,50,11360,30,11440,20L11520,10L11520,100L11440,100C11360,100,11200,100,11040,100C10880,100,10720,100,10560,100C10400,100,10240,100,10080,100C9920,100,9760,100,9600,100C9440,100,9280,100,9120,100C8960,100,8800,100,8640,100C8480,100,8320,100,8160,100C8000,100,7840,100,7680,100C7520,100,7360,100,7200,100C7040,100,6880,100,6720,100C6560,100,6400,100,6240,100C6080,100,5920,100,5760,100C5600,100,5440,100,5280,100C5120,100,4960,100,4800,100C4640,100,4480,100,4320,100C4160,100,4000,100,3840,100C3680,100,3520,100,3360,100C3200,100,3040,100,2880,100C2720,100,2560,100,2400,100C2240,100,2080,100,1920,100C1760,100,1600,100,1440,100C1280,100,1120,100,960,100C800,100,640,100,480,100C320,100,160,100,80,100L0,100Z"></path></svg>